<?xml version="1.0" encoding="UTF-8" standalone="no"?>
<svg xmlns="http://www.w3.org/2000/svg" version="1.2" baseProfile="tiny" viewBox="0.00 0.00 784.00 578.00" width="784.00" height="578.00">
<path stroke="#000000" stroke-opacity="0.000" fill="none" stroke-width="1.00" vector-effect="non-scaling-stroke" d="
  M 276.99 0.00
  L 513.71 0.00"
/>
<path stroke="#000000" stroke-opacity="0.000" fill="none" stroke-width="1.00" vector-effect="non-scaling-stroke" d="
  M 524.67 0.00
  L 784.00 0.00
  L 784.00 426.48"
/>
<path stroke="#000000" stroke-opacity="0.000" fill="none" stroke-width="1.00" vector-effect="non-scaling-stroke" d="
  M 784.00 430.92
  L 784.00 578.00
  L 0.00 578.00
  L 0.00 430.80"
/>
<path stroke="#000000" stroke-opacity="0.000" fill="none" stroke-width="1.00" vector-effect="non-scaling-stroke" d="
  M 0.00 427.77
  L 0.00 0.00
  L 266.97 0.00"
/>
<path stroke="#80b122" fill="none" stroke-width="1.00" vector-effect="non-scaling-stroke" d="
  M 266.97 0.00
  L 276.99 0.00"
/>
<path stroke="#80b122" fill="none" stroke-width="1.00" vector-effect="non-scaling-stroke" d="
  M 513.71 0.00
  L 524.67 0.00"
/>
<path stroke="#8b8989" fill="none" stroke-width="1.00" vector-effect="non-scaling-stroke" d="
  M 0.00 430.80
  L 0.00 427.77"
/>
<path stroke="#8b8989" fill="none" stroke-width="1.00" vector-effect="non-scaling-stroke" d="
  M 784.00 426.48
  L 784.00 430.92"
/>
<path stroke="#80b122" stroke-opacity="0.502" fill="none" stroke-width="1.00" vector-effect="non-scaling-stroke" d="
  M 266.97 0.00
  L 249.61 4.57
  C 249.05 4.72 248.97 5.49 249.49 5.75
  C 255.94 8.99 261.29 13.81 265.55 20.20
  C 268.48 24.61 270.94 28.56 272.93 32.07
  C 274.12 34.19 275.01 36.58 276.07 38.69
  C 280.73 47.98 286.07 58.92 292.08 71.53
  C 293.79 75.12 295.75 78.84 297.94 82.67
  C 301.57 89.00 303.69 92.60 304.31 93.49
  C 311.34 103.64 317.87 111.70 323.92 117.67
  C 328.15 121.84 332.57 125.23 337.20 127.85
  C 339.67 129.24 343.41 131.10 348.42 133.42
  C 351.97 135.07 355.95 136.33 360.36 137.20
  C 367.38 138.59 373.68 139.49 379.26 139.90
  C 382.73 140.15 387.72 139.91 394.23 139.18
  C 394.41 139.16 394.48 138.92 394.33 138.81
  C 390.48 135.88 387.11 132.54 384.22 128.78
  C 380.65 124.13 378.43 121.19 377.56 119.96
  C 375.75 117.39 371.72 110.92 365.48 100.55
  C 363.43 97.15 361.63 93.69 360.07 90.18
  C 357.71 84.87 356.05 81.33 355.10 79.57
  C 354.70 78.84 352.24 73.55 347.72 63.70
  C 343.80 55.15 339.79 47.61 335.70 41.08
  C 330.68 33.07 326.77 27.68 323.96 24.89
  C 321.09 22.03 317.14 18.58 312.13 14.53
  C 308.23 11.38 304.55 8.90 301.10 7.11
  C 297.57 5.28 293.45 3.70 288.75 2.36
  C 288.07 2.17 287.26 1.96 286.31 1.75
  C 283.23 1.06 280.12 0.48 276.99 0.00"
/>
<path stroke="#80b122" stroke-opacity="0.502" fill="none" stroke-width="1.00" vector-effect="non-scaling-stroke" d="
  M 513.71 0.00
  C 507.01 1.22 501.84 2.38 498.21 3.47
  C 493.83 4.78 488.92 7.12 483.48 10.49
  C 482.53 11.08 478.23 14.59 470.59 21.00
  C 467.26 23.79 464.49 26.73 462.28 29.84
  C 456.69 37.67 452.42 44.30 449.49 49.75
  C 447.63 53.21 445.57 57.29 443.30 62.00
  C 440.59 67.63 436.05 77.46 429.67 91.50
  C 427.10 97.13 424.01 101.38 421.34 106.40
  C 415.90 116.67 409.12 125.60 401.17 134.66
  C 400.52 135.41 398.79 136.80 395.99 138.84
  C 395.82 138.97 395.89 139.23 396.10 139.26
  C 400.25 139.75 404.83 139.98 409.86 139.97
  C 413.55 139.97 417.61 138.73 420.89 138.93
  C 421.23 138.95 421.57 138.90 421.89 138.78
  C 423.14 138.32 424.84 138.03 427.01 137.92
  C 427.37 137.90 427.72 137.82 428.06 137.69
  C 428.28 137.60 430.22 137.13 433.89 136.26
  C 435.44 135.89 437.32 135.27 439.55 134.40
  C 445.84 131.94 451.56 129.04 456.71 125.69
  C 459.88 123.62 462.19 121.86 463.66 120.41
  C 469.25 114.84 473.05 111.71 477.01 106.18
  C 483.03 97.75 486.41 92.91 487.15 91.66
  C 490.45 86.14 493.17 81.37 495.32 77.35
  C 496.39 75.36 497.14 73.81 497.58 72.68
  C 499.17 68.65 501.23 65.50 503.04 61.40
  C 506.27 54.10 510.03 47.04 513.56 39.79
  C 513.69 39.52 515.87 35.56 520.10 27.90
  C 522.15 24.20 524.70 20.26 527.75 16.09
  C 527.93 15.84 528.13 15.62 528.35 15.42
  L 534.98 9.40
  C 535.23 9.18 535.48 8.97 535.74 8.76
  C 535.93 8.63 537.73 7.58 541.14 5.63
  C 541.42 5.47 541.44 5.08 541.19 4.89
  C 540.63 4.47 540.03 4.21 539.39 4.11
  C 537.35 3.77 536.02 2.51 533.96 2.16
  C 530.80 1.62 527.80 0.62 524.67 0.00"
/>
<path stroke="#8b8989" stroke-opacity="0.502" fill="none" stroke-width="1.00" vector-effect="non-scaling-stroke" d="
  M 784.00 426.48
  L 773.01 424.95
  C 772.72 424.91 772.45 424.77 772.24 424.55
  C 769.81 421.89 770.09 419.07 769.66 416.47
  C 769.59 416.04 769.57 415.60 769.62 415.16
  C 769.98 412.07 769.01 408.89 769.01 405.65
  C 768.99 386.52 768.98 373.67 768.99 367.11
  C 769.00 363.64 768.81 360.64 768.42 358.11
  C 767.88 354.63 767.20 351.70 766.39 349.33
  C 762.00 336.52 748.61 330.76 735.86 331.46
  C 728.85 331.85 722.00 333.40 715.32 336.12
  C 711.20 337.79 707.80 341.12 703.60 344.72
  C 702.92 345.30 701.88 345.13 701.43 344.35
  C 697.57 337.76 692.39 334.01 684.62 332.27
  C 669.94 328.98 654.06 332.90 644.10 344.77
  C 643.40 345.60 642.05 345.11 642.05 344.03
  L 642.05 332.00
  C 642.05 331.40 641.52 330.94 640.93 331.02
  C 631.40 332.35 621.54 334.74 611.35 338.21
  C 610.43 338.52 609.89 339.46 610.08 340.41
  L 610.30 341.54
  C 610.50 342.58 611.57 343.19 612.57 342.85
  C 614.37 342.22 615.92 341.75 617.22 341.46
  C 621.89 340.39 622.91 343.73 623.11 347.68
  C 623.20 349.59 623.50 351.48 624.00 353.37
  C 624.03 353.50 624.05 353.64 624.05 353.78
  L 623.97 413.34
  C 623.97 413.41 623.96 413.48 623.93 413.55
  C 623.51 414.89 623.20 417.28 623.00 420.72
  C 622.93 421.90 622.28 423.19 621.05 424.60
  C 620.88 424.80 620.63 424.93 620.37 424.97
  L 611.75 426.26
  C 610.46 426.46 609.44 427.46 609.23 428.74
  L 609.20 428.88
  C 608.98 429.97 609.82 430.99 610.93 430.99
  L 655.11 431.00
  C 655.62 431.00 656.03 430.59 656.03 430.08
  L 656.03 427.14
  C 656.03 426.52 655.52 426.02 654.90 426.04
  C 651.59 426.14 650.04 424.99 647.00 425.01
  C 645.58 425.01 644.32 424.23 643.21 422.67
  C 643.04 422.44 642.95 422.16 642.95 421.87
  L 642.95 416.97
  C 642.95 416.69 642.89 416.40 642.77 416.14
  C 642.32 415.16 642.10 414.49 642.10 414.12
  C 642.01 408.54 642.00 388.27 642.07 353.31
  C 642.07 352.98 642.19 352.67 642.40 352.42
  C 650.73 342.82 665.88 336.79 677.56 344.21
  C 680.33 345.97 682.32 348.01 683.51 350.32
  C 685.76 354.69 686.91 359.85 686.96 365.82
  C 687.12 383.98 687.14 401.53 687.01 418.46
  C 687.00 418.84 686.90 419.21 686.72 419.54
  C 686.35 420.22 686.13 420.88 686.08 421.51
  C 686.01 422.39 685.56 423.41 684.75 424.56
  C 684.55 424.85 684.22 425.01 683.87 424.99
  C 682.34 424.90 680.97 425.10 679.74 425.59
  C 676.73 426.78 671.63 424.79 673.08 430.44
  C 673.16 430.76 673.45 430.99 673.79 430.99
  L 719.16 430.99
  C 719.64 430.99 720.03 430.60 720.03 430.11
  L 720.03 427.11
  C 720.03 426.47 719.49 425.97 718.86 426.01
  C 716.90 426.14 715.38 425.98 714.31 425.53
  C 711.82 424.49 708.52 426.02 706.93 422.74
  C 706.43 421.71 706.15 420.21 706.08 418.26
  C 705.89 412.77 705.80 409.69 705.80 409.00
  C 705.82 396.49 705.83 383.14 705.84 368.94
  C 705.84 366.53 705.65 364.08 705.28 361.60
  C 704.91 359.18 704.74 356.73 704.76 354.24
  C 704.77 353.80 704.62 353.33 704.32 352.84
  C 703.90 352.16 704.09 351.27 704.74 350.81
  C 707.41 348.93 710.64 345.83 713.56 344.26
  C 720.65 340.47 730.53 339.34 738.00 343.19
  C 742.82 345.69 746.67 348.62 748.21 354.04
  C 749.18 357.45 749.75 359.95 749.93 361.52
  C 750.26 364.36 750.58 366.21 750.88 367.06
  C 750.95 367.25 750.99 367.46 750.99 367.67
  L 750.93 412.78
  C 750.93 412.99 750.90 413.19 750.84 413.39
  C 750.23 415.47 749.94 418.14 749.97 421.40
  C 749.97 421.75 749.46 422.78 748.43 424.51
  C 748.22 424.86 747.82 425.05 747.42 425.01
  C 745.96 424.86 744.72 425.08 743.69 425.65
  C 743.43 425.80 743.13 425.89 742.82 425.91
  L 739.14 426.10
  C 737.87 426.17 736.87 427.22 736.87 428.50
  L 736.87 429.14
  C 736.87 430.13 737.68 430.94 738.67 430.94
  L 784.00 430.92"
/>
<path stroke="#8b8989" stroke-opacity="0.502" fill="none" stroke-width="1.00" vector-effect="non-scaling-stroke" d="
  M 0.00 430.80
  L 44.06 430.96
  C 44.46 430.96 44.79 430.63 44.79 430.23
  L 44.79 427.89
  C 44.79 427.61 44.63 427.35 44.37 427.22
  C 42.94 426.50 41.62 426.11 40.42 426.05
  C 36.70 425.87 34.52 425.21 30.58 424.76
  C 29.99 424.69 28.97 424.14 27.52 423.09
  C 27.22 422.88 27.04 422.54 27.03 422.17
  C 26.90 419.24 26.95 417.34 27.19 416.47
  C 27.86 414.02 29.29 409.81 31.50 403.84
  C 32.38 401.47 33.86 397.27 35.93 391.23
  C 37.70 386.08 39.77 380.87 42.15 375.58
  C 42.31 375.22 42.67 375.00 43.06 375.01
  C 48.30 375.22 52.63 373.97 57.71 373.97
  C 62.66 373.97 68.19 373.97 74.29 373.97
  C 78.77 373.96 82.74 375.00 86.88 375.05
  C 87.75 375.06 88.52 375.60 88.81 376.41
  L 104.84 420.29
  C 104.98 420.67 104.95 421.09 104.76 421.45
  C 104.24 422.44 103.77 423.14 103.34 423.55
  C 103.06 423.83 102.70 424.02 102.31 424.10
  L 90.19 426.45
  C 89.00 426.68 88.09 427.63 87.89 428.82
  L 87.89 428.85
  C 87.75 429.95 88.60 430.93 89.72 430.94
  C 106.61 431.01 123.19 431.01 139.47 430.94
  C 140.37 430.93 141.13 430.32 141.24 429.50
  C 141.44 428.02 140.65 427.04 138.88 426.56
  C 135.88 425.75 133.36 425.19 131.31 424.89
  C 130.89 424.83 130.49 424.67 130.13 424.43
  C 127.53 422.63 125.63 420.42 124.44 417.81
  C 119.78 407.62 115.99 394.97 112.08 385.46
  C 110.66 382.01 107.55 374.14 102.74 361.85
  C 101.93 359.75 101.09 357.60 100.24 355.40
  C 92.62 335.67 88.69 325.51 88.46 324.90
  C 87.92 323.49 87.63 322.74 87.59 322.64
  C 83.48 312.17 78.96 300.88 74.03 288.79
  C 73.84 288.33 73.41 288.02 72.92 288.00
  C 70.08 287.85 68.15 289.23 67.13 292.15
  C 66.52 293.88 65.52 296.27 64.13 299.33
  C 61.76 304.53 58.44 312.55 54.15 323.38
  C 49.25 335.73 45.40 345.10 42.60 351.47
  C 41.65 353.64 40.56 356.08 39.34 358.79
  C 39.21 359.09 39.13 359.41 39.12 359.73
  C 39.07 360.94 38.92 361.83 38.67 362.40
  C 32.84 376.23 28.39 386.97 25.34 394.62
  C 25.17 395.05 25.24 395.55 25.53 395.91
  L 25.89 396.35
  C 26.12 396.64 26.15 397.04 25.96 397.36
  C 25.56 398.02 22.49 404.15 16.74 415.74
  C 15.11 419.02 11.98 423.88 8.30 424.80
  C 4.67 425.71 1.91 426.70 0.00 427.77"
/>
<path stroke="#008031" stroke-opacity="0.502" fill="none" stroke-width="1.00" vector-effect="non-scaling-stroke" d="
  M 391.24 253.95
  C 391.34 253.92 391.38 253.80 391.30 253.73
  C 390.31 252.85 388.82 251.61 386.84 250.00
  C 380.85 245.14 376.13 239.26 370.32 231.22
  C 362.10 219.83 354.74 208.15 348.25 196.18
  C 345.62 191.33 339.60 178.92 330.20 158.95
  C 326.65 151.41 321.49 140.61 314.73 126.55
  C 312.22 121.32 309.90 117.03 307.78 113.69
  C 303.05 106.22 299.01 99.22 293.28 92.39
  C 288.69 86.93 286.31 84.09 286.12 83.88
  C 273.93 70.04 258.99 59.74 241.28 52.97
  C 237.63 51.58 232.82 50.26 226.84 49.02
  C 223.23 48.27 219.15 47.90 214.60 47.91
  C 208.17 47.92 204.06 48.01 202.29 48.17
  C 194.54 48.88 186.18 50.87 177.19 54.14
  C 176.60 54.36 176.14 54.58 175.81 54.81
  C 175.27 55.19 175.37 56.02 175.99 56.27
  C 179.19 57.54 181.69 58.89 183.50 60.32
  C 189.18 64.83 193.58 68.26 197.70 74.33
  C 202.05 80.74 205.00 85.29 206.54 87.97
  C 212.49 98.36 218.22 109.48 223.71 121.33
  C 230.04 134.98 237.07 149.41 244.80 164.60
  C 249.33 173.50 253.68 181.01 257.86 187.14
  C 263.37 195.22 268.57 202.21 273.47 208.10
  C 276.05 211.20 279.27 214.69 283.14 218.57
  C 288.26 223.69 291.54 226.79 292.97 227.87
  C 300.32 233.40 307.56 238.07 314.71 241.86
  C 323.24 246.38 332.28 249.53 341.14 251.34
  C 351.06 253.37 357.88 254.52 361.59 254.79
  C 365.13 255.04 371.20 255.54 376.14 255.20
  C 378.83 255.01 382.50 254.94 387.17 254.97
  C 387.18 254.97 387.20 254.97 387.22 254.96
  L 391.24 253.95"
/>
<path stroke="#008031" stroke-opacity="0.502" fill="none" stroke-width="1.00" vector-effect="non-scaling-stroke" d="
  M 615.41 55.17
  C 613.96 54.31 612.74 53.71 611.76 53.36
  C 603.04 50.28 592.20 47.95 582.16 47.93
  C 575.25 47.92 571.20 47.98 570.01 48.10
  C 561.87 48.96 553.75 51.07 545.66 54.44
  C 531.77 60.21 519.55 68.37 509.02 78.90
  C 506.45 81.47 503.74 84.49 500.87 87.97
  C 496.77 92.95 494.22 96.11 493.22 97.45
  C 490.71 100.80 487.41 105.81 483.32 112.46
  C 480.43 117.14 477.59 122.42 474.78 128.29
  C 459.96 159.30 452.42 175.08 452.16 175.64
  C 446.68 187.37 442.02 196.57 438.19 203.22
  C 432.49 213.13 425.43 223.89 417.00 235.51
  C 412.09 242.29 406.17 248.34 399.25 253.66
  C 398.93 253.91 399.12 254.42 399.52 254.40
  C 400.47 254.36 401.47 254.49 402.54 254.79
  C 402.94 254.90 403.37 254.96 403.79 254.95
  C 408.26 254.88 412.24 254.97 415.75 255.21
  C 419.62 255.48 422.38 255.14 425.79 255.06
  C 427.70 255.01 430.20 254.75 433.29 254.28
  C 447.80 252.04 459.42 249.64 470.48 244.42
  C 480.07 239.89 489.14 234.29 497.69 227.62
  C 502.44 223.91 507.17 219.35 511.88 213.92
  C 517.81 207.08 521.97 201.97 524.34 198.60
  C 532.97 186.32 538.01 178.78 539.48 175.97
  C 550.21 155.46 560.84 133.75 571.38 110.84
  C 572.49 108.43 574.12 106.14 575.18 103.70
  C 577.47 98.44 580.82 92.93 583.51 88.29
  C 585.09 85.56 586.40 83.48 587.43 82.05
  C 589.46 79.23 590.85 77.21 591.58 75.98
  C 595.80 68.91 602.33 63.77 609.47 58.57
  C 609.49 58.56 609.51 58.54 609.54 58.53
  L 615.36 55.91
  C 615.67 55.77 615.70 55.34 615.41 55.17"
/>
<path stroke="#e10a17" stroke-opacity="0.502" fill="none" stroke-width="1.00" vector-effect="non-scaling-stroke" d="
  M 424.54 180.68
  C 424.54 164.44 411.37 151.27 395.13 151.27
  C 378.89 151.27 365.72 164.44 365.72 180.68
  C 365.72 196.92 378.89 210.09 395.13 210.09
  C 411.37 210.09 424.54 196.92 424.54 180.68"
/>
<path stroke="#8b8989" stroke-opacity="0.502" fill="none" stroke-width="1.00" vector-effect="non-scaling-stroke" d="
  M 500.95 326.19
  C 501.04 319.66 501.00 315.84 500.85 314.74
  C 500.10 309.30 499.77 305.79 499.87 304.20
  C 499.90 303.75 499.86 303.30 499.74 302.87
  L 498.02 296.62
  C 497.94 296.33 497.77 296.07 497.52 295.90
  C 495.28 294.30 493.14 293.14 491.10 292.42
  C 484.15 289.98 476.83 288.51 469.13 288.00
  C 463.25 287.62 458.46 286.87 452.62 287.17
  C 437.18 287.97 421.41 290.58 408.10 299.37
  C 403.35 302.51 399.69 305.15 397.14 307.29
  C 391.83 311.74 388.51 316.10 385.11 322.35
  C 379.56 332.54 376.51 343.12 375.94 354.09
  C 375.76 357.64 375.02 360.89 375.34 364.75
  C 375.72 369.29 376.03 372.53 376.28 374.48
  C 377.71 385.73 382.13 397.86 389.47 407.04
  C 392.18 410.42 396.22 415.32 400.48 418.48
  C 414.39 428.78 430.16 434.01 447.79 434.17
  C 460.58 434.28 473.85 432.94 487.61 430.14
  C 490.61 429.53 493.54 428.49 496.40 427.02
  C 497.16 426.63 497.75 425.97 498.06 425.17
  C 500.66 418.45 502.92 411.46 504.85 404.19
  C 505.62 401.27 506.02 397.69 506.04 393.44
  C 506.04 392.81 506.18 392.32 506.46 391.97
  C 506.96 391.34 506.77 390.75 505.88 390.18
  C 505.74 390.08 505.57 390.02 505.40 390.00
  L 502.89 389.70
  C 501.76 389.57 500.70 390.28 500.39 391.37
  C 499.82 393.40 498.89 396.07 497.62 399.40
  C 492.94 411.58 484.78 421.73 471.61 425.34
  C 459.43 428.67 447.95 428.09 436.31 424.72
  C 425.92 421.71 417.46 415.40 410.95 405.80
  C 404.24 395.91 400.01 384.92 398.26 372.82
  C 397.71 369.00 398.08 365.12 397.18 361.22
  C 397.11 360.94 397.08 360.66 397.08 360.38
  L 397.08 354.02
  C 397.08 353.76 397.12 353.50 397.19 353.25
  C 398.21 349.56 397.67 345.64 398.29 341.70
  C 399.87 331.75 404.41 317.75 412.20 310.68
  C 414.50 308.59 415.92 307.30 416.46 306.80
  C 428.83 295.38 448.43 291.89 464.59 294.44
  C 471.59 295.55 477.88 298.19 483.46 302.36
  C 487.17 305.13 489.95 308.66 491.78 312.95
  C 493.77 317.62 495.23 322.40 496.16 327.29
  C 496.23 327.63 496.49 327.89 496.83 327.94
  C 497.89 328.09 499.11 327.77 500.49 326.98
  C 500.77 326.82 500.94 326.52 500.95 326.19"
/>
<path stroke="#8b8989" stroke-opacity="0.502" fill="none" stroke-width="1.00" vector-effect="non-scaling-stroke" d="
  M 149.45 428.23
  C 149.84 428.35 149.87 428.90 149.49 429.05
  C 140.88 432.55 133.39 435.71 128.56 444.27
  C 126.41 448.06 125.57 452.02 126.04 456.14
  C 126.55 460.69 128.32 464.35 131.33 467.12
  C 131.62 467.39 131.48 467.88 131.09 467.96
  L 130.28 468.12
  C 129.95 468.18 129.82 468.59 130.05 468.83
  L 131.86 470.71
  C 132.01 470.88 132.18 471.02 132.37 471.15
  C 142.98 478.29 154.72 481.93 167.59 482.08
  C 182.44 482.26 197.08 479.35 209.29 470.02
  C 218.35 463.10 222.87 453.76 222.85 441.99
  C 222.85 441.60 222.81 441.22 222.73 440.83
  C 221.73 435.82 221.42 432.54 218.67 429.13
  C 214.60 424.06 209.50 420.66 203.37 418.91
  C 192.34 415.76 182.33 415.99 170.00 415.96
  C 165.11 415.94 160.12 415.26 155.04 413.93
  C 154.65 413.82 154.28 413.66 153.94 413.44
  C 150.88 411.43 148.54 409.77 148.99 406.24
  C 149.10 405.37 149.62 404.05 150.55 402.27
  C 152.02 399.44 157.59 397.39 160.52 396.28
  C 160.84 396.16 161.18 396.13 161.51 396.20
  C 168.58 397.73 176.68 396.68 183.60 395.10
  C 194.87 392.53 202.98 386.15 207.94 375.94
  C 209.29 373.17 209.98 370.70 210.02 368.51
  C 210.11 364.27 210.10 359.95 210.00 355.56
  C 209.99 354.91 209.82 354.27 209.52 353.69
  L 205.24 345.56
  C 205.05 345.21 205.35 344.80 205.74 344.86
  C 207.07 345.07 208.07 344.88 208.76 344.29
  C 208.88 344.19 209.04 344.13 209.20 344.12
  C 211.51 344.03 216.44 343.66 224.00 343.00
  C 227.33 342.71 229.64 342.36 230.94 341.94
  C 234.46 340.81 237.25 341.04 237.80 344.98
  C 238.42 349.38 238.95 353.19 238.96 358.37
  C 239.00 379.28 238.99 397.02 238.92 411.57
  C 238.91 412.25 238.83 412.92 238.67 413.58
  C 238.11 415.81 237.90 417.95 238.03 420.02
  C 238.06 420.53 237.99 421.05 237.81 421.54
  L 236.87 424.11
  C 236.76 424.40 236.51 424.62 236.20 424.68
  L 226.83 426.50
  C 225.68 426.73 224.85 427.73 224.85 428.90
  L 224.85 429.19
  C 224.85 430.19 225.66 431.00 226.66 431.00
  L 274.13 431.00
  C 274.44 431.00 274.72 430.80 274.82 430.50
  C 275.44 428.57 275.15 427.19 273.94 426.36
  C 273.70 426.19 273.41 426.08 273.11 426.04
  L 261.93 424.71
  C 261.89 424.71 261.85 424.70 261.82 424.68
  C 257.62 422.44 258.12 418.56 257.19 415.35
  C 257.11 415.08 257.07 414.80 257.07 414.52
  L 257.07 353.93
  C 257.07 353.49 257.17 353.06 257.36 352.67
  C 260.00 347.21 263.64 343.85 270.21 345.29
  C 274.48 346.23 278.94 347.40 283.59 348.81
  C 284.74 349.16 285.99 348.86 286.85 348.03
  C 289.98 345.02 292.69 341.71 294.99 338.09
  C 295.20 337.76 295.12 337.32 294.81 337.08
  C 290.19 333.52 282.90 330.65 276.97 331.97
  C 269.25 333.69 262.67 338.82 257.69 344.84
  C 256.99 345.68 255.63 345.14 255.70 344.05
  C 255.98 340.07 255.69 335.98 254.84 331.78
  C 254.72 331.23 254.19 330.87 253.64 330.98
  C 244.89 332.57 235.89 334.88 226.65 337.91
  C 225.64 338.23 224.59 338.38 223.53 338.33
  C 221.76 338.26 220.36 338.13 219.34 337.95
  C 205.45 335.48 196.36 333.89 192.07 333.16
  C 186.90 332.29 179.89 331.86 171.03 331.87
  C 157.03 331.88 142.52 336.07 134.57 347.94
  C 132.82 350.56 131.58 353.63 130.86 357.14
  C 129.96 361.53 129.59 364.84 129.75 367.08
  C 130.14 372.52 131.06 376.67 132.53 379.54
  C 135.81 385.94 143.58 390.75 150.76 393.44
  C 151.35 393.66 151.40 394.47 150.85 394.76
  C 144.33 398.19 137.94 402.27 133.60 408.14
  C 133.38 408.44 133.25 408.78 133.20 409.14
  C 132.80 412.17 132.92 414.36 133.57 415.72
  C 135.86 420.53 140.18 424.32 146.55 427.08
  C 147.92 427.67 148.88 428.06 149.45 428.23"
/>
<path stroke="#8b8989" stroke-opacity="0.502" fill="none" stroke-width="1.00" vector-effect="non-scaling-stroke" d="
  M 611.23 394.36
  C 611.46 393.57 611.58 393.16 611.59 393.13
  C 612.26 387.48 612.60 383.35 612.62 380.74
  C 612.65 376.50 611.92 373.09 611.74 369.00
  C 611.72 368.62 611.64 368.25 611.51 367.89
  C 609.29 362.07 608.04 358.87 607.75 358.28
  C 600.84 344.21 589.78 335.68 574.55 332.68
  C 569.61 331.71 563.16 331.49 555.19 332.04
  C 534.96 333.42 517.67 347.13 511.44 365.92
  C 511.05 367.09 510.39 369.72 509.44 373.79
  C 508.72 376.85 509.27 379.88 508.46 382.84
  C 508.39 383.08 508.37 383.33 508.39 383.57
  L 509.46 396.88
  C 509.46 396.94 509.47 397.00 509.49 397.05
  C 511.20 403.43 513.48 409.02 516.32 413.82
  C 516.50 414.13 516.71 414.41 516.95 414.68
  C 517.62 415.44 519.38 417.39 522.23 420.53
  C 524.16 422.66 527.11 424.80 531.06 426.94
  C 544.07 434.00 558.11 435.94 573.18 432.75
  C 577.86 431.76 582.18 430.12 586.13 427.81
  C 590.46 425.29 594.23 422.59 597.44 419.70
  C 600.23 417.19 602.39 414.59 603.90 411.89
  C 605.73 408.62 607.23 405.86 608.39 403.60
  C 608.48 403.42 609.43 400.34 611.23 394.36"
/>
<path stroke="#8b8989" stroke-opacity="0.502" fill="none" stroke-width="1.00" vector-effect="non-scaling-stroke" d="
  M 345.33 372.95
  C 344.31 373.52 343.04 373.98 341.53 374.33
  C 333.10 376.28 324.98 378.81 317.15 381.94
  C 309.38 385.05 302.72 389.47 297.17 395.22
  C 290.65 401.97 288.61 410.13 291.04 419.70
  C 291.12 420.03 291.24 420.35 291.41 420.65
  C 299.74 435.72 314.42 435.29 329.44 432.62
  C 334.84 431.66 341.50 427.35 345.37 424.91
  C 346.35 424.29 347.64 424.58 348.27 425.55
  L 350.41 428.82
  C 350.43 428.86 350.45 428.89 350.48 428.92
  C 353.61 432.45 357.94 434.15 363.48 434.04
  C 369.97 433.91 375.28 432.44 379.41 429.65
  C 379.84 429.36 379.98 428.78 379.72 428.33
  L 379.45 427.86
  C 379.00 427.08 377.97 426.85 377.23 427.38
  C 376.45 427.94 375.42 428.10 374.14 427.85
  C 370.15 427.10 367.39 424.96 365.84 421.42
  C 364.03 417.27 363.11 414.20 363.06 412.23
  C 362.90 404.51 362.84 391.77 362.88 374.00
  C 362.89 369.86 362.77 366.94 362.51 365.23
  C 362.11 362.55 362.02 360.56 362.23 359.25
  C 362.26 359.09 362.26 358.93 362.24 358.76
  C 361.90 355.10 361.66 352.86 361.53 352.03
  C 359.46 338.92 351.57 332.19 337.88 331.86
  C 318.82 331.40 303.63 338.47 292.30 353.08
  C 291.78 353.76 291.72 354.68 292.14 355.42
  L 295.43 361.12
  C 296.00 362.11 297.28 362.45 298.27 361.88
  L 298.92 361.50
  C 299.08 361.41 299.20 361.27 299.26 361.11
  C 301.21 356.28 304.14 351.84 308.05 347.77
  C 312.43 343.21 317.39 342.30 323.23 341.42
  C 325.04 341.15 326.63 341.07 328.00 341.16
  C 333.04 341.49 337.11 343.48 340.20 347.12
  C 345.49 353.34 345.11 361.76 345.96 367.74
  C 346.03 368.20 345.97 369.69 345.80 372.20
  C 345.78 372.51 345.60 372.79 345.33 372.95"
/>
<path stroke="#8b8989" stroke-opacity="0.502" fill="none" stroke-width="1.00" vector-effect="non-scaling-stroke" d="
  M 65.91 316.89
  C 65.49 316.25 64.52 316.36 64.27 317.08
  C 60.09 328.85 55.05 341.82 49.14 355.99
  C 48.49 357.55 48.07 358.70 47.86 359.45
  C 47.19 361.92 46.84 363.17 46.83 363.20
  C 46.75 363.38 46.65 363.55 46.54 363.72
  C 45.91 364.64 45.59 365.84 45.59 367.33
  C 45.60 367.66 45.86 367.93 46.19 367.95
  C 48.01 368.05 49.04 368.04 49.27 367.92
  C 50.43 367.33 52.17 367.03 54.50 367.02
  C 63.99 366.97 72.14 366.98 78.93 367.05
  C 79.50 367.06 80.05 367.19 80.56 367.44
  C 81.53 367.91 82.64 368.10 83.88 367.99
  C 84.44 367.94 84.79 367.37 84.59 366.85
  C 82.94 362.73 82.24 359.40 80.65 355.43
  C 79.06 351.45 74.56 339.86 67.17 320.66
  C 67.10 320.50 67.06 320.33 67.04 320.16
  C 66.86 318.86 66.48 317.77 65.91 316.89"
/>
<path stroke="#8b8989" stroke-opacity="0.502" fill="none" stroke-width="1.00" vector-effect="non-scaling-stroke" d="
  M 148.94 364.36
  C 149.15 375.64 154.27 387.44 166.43 389.93
  C 167.45 390.14 169.11 390.22 171.39 390.18
  C 173.67 390.14 175.32 389.99 176.34 389.75
  C 188.40 386.81 193.08 374.83 192.88 363.55
  C 192.67 352.28 187.55 340.47 175.39 337.99
  C 174.36 337.78 172.71 337.69 170.43 337.73
  C 168.15 337.78 166.49 337.92 165.48 338.17
  C 153.42 341.10 148.74 353.08 148.94 364.36"
/>
<path stroke="#8b8989" stroke-opacity="0.502" fill="none" stroke-width="1.00" vector-effect="non-scaling-stroke" d="
  M 147.43 437.39
  C 145.67 440.07 144.59 442.79 144.18 445.55
  C 143.71 448.74 144.28 452.71 145.89 457.44
  C 147.50 462.17 150.49 466.00 154.86 468.91
  C 160.57 472.73 165.61 474.75 169.97 474.96
  C 176.13 475.27 183.49 475.71 189.43 472.89
  C 198.69 468.49 204.99 463.33 206.87 452.98
  C 207.64 448.73 207.07 444.91 205.16 441.53
  C 203.07 437.82 200.06 435.25 196.15 433.81
  C 186.15 430.15 176.39 429.67 165.27 430.02
  C 158.55 430.23 153.00 432.23 148.62 436.03
  C 148.16 436.43 147.76 436.89 147.43 437.39"
/>
<path stroke="#8b8989" stroke-opacity="0.502" fill="none" stroke-width="1.00" vector-effect="non-scaling-stroke" d="
  M 590.66 368.17
  C 589.72 365.11 589.01 363.30 588.38 360.40
  C 588.06 358.94 587.62 357.61 587.07 356.41
  C 582.03 345.55 574.23 338.57 561.83 337.70
  C 550.14 336.87 541.35 341.48 535.46 351.53
  C 534.40 353.34 533.41 355.59 532.50 358.26
  C 531.23 361.99 530.49 364.32 530.28 365.26
  C 529.24 369.95 528.79 375.67 528.93 382.40
  C 529.03 387.07 529.90 391.16 529.99 395.95
  C 530.00 396.63 530.10 397.30 530.27 397.95
  C 531.77 403.62 533.96 408.75 536.85 413.34
  C 538.57 416.07 540.41 417.50 542.89 420.13
  C 543.78 421.08 545.07 422.09 546.76 423.14
  C 563.71 433.78 584.58 425.27 589.96 405.75
  C 591.24 401.09 591.92 397.92 592.01 396.25
  C 592.34 389.78 592.31 382.80 591.92 375.30
  C 591.90 374.88 591.83 374.47 591.70 374.08
  C 591.33 372.94 591.08 371.43 590.93 369.56
  C 590.89 369.09 590.80 368.62 590.66 368.17"
/>
<path stroke="#8b8989" stroke-opacity="0.502" fill="none" stroke-width="1.00" vector-effect="non-scaling-stroke" d="
  M 345.43 382.06
  C 333.30 381.35 317.75 384.90 311.18 396.13
  C 309.13 399.65 308.27 403.43 308.60 407.46
  C 308.93 411.35 310.25 415.00 312.57 418.41
  C 316.55 424.27 324.31 425.38 331.01 425.03
  C 336.51 424.74 341.12 422.54 344.84 418.42
  C 345.50 417.68 345.87 416.72 345.87 415.73
  L 345.87 382.53
  C 345.87 382.28 345.68 382.08 345.43 382.06"
/>
</svg>
