<?xml version="1.0" encoding="UTF-8" standalone="no"?>
<svg xmlns="http://www.w3.org/2000/svg" version="1.2" baseProfile="tiny" viewBox="0.00 0.00 784.00 578.00" width="784.00" height="578.00">
<g fill="#008031">
<path d="
  M 391.24 253.95
  L 387.22 254.96
  C 387.20 254.97 387.18 254.97 387.17 254.97
  C 382.50 254.94 378.83 255.01 376.14 255.20
  C 371.20 255.54 365.13 255.04 361.59 254.79
  C 357.88 254.52 351.06 253.37 341.14 251.34
  C 332.28 249.53 323.24 246.38 314.71 241.86
  C 307.56 238.07 300.32 233.40 292.97 227.87
  C 291.54 226.79 288.26 223.69 283.14 218.57
  C 279.27 214.69 276.05 211.20 273.47 208.10
  C 268.57 202.21 263.37 195.22 257.86 187.14
  C 253.68 181.01 249.33 173.50 244.80 164.60
  C 237.07 149.41 230.04 134.98 223.71 121.33
  C 218.22 109.48 212.49 98.36 206.54 87.97
  C 205.00 85.29 202.05 80.74 197.70 74.33
  C 193.58 68.26 189.18 64.83 183.50 60.32
  C 181.69 58.89 179.19 57.54 175.99 56.27
  C 175.37 56.02 175.27 55.19 175.81 54.81
  C 176.14 54.58 176.60 54.36 177.19 54.14
  C 186.18 50.87 194.54 48.88 202.29 48.17
  C 204.06 48.01 208.17 47.92 214.60 47.91
  C 219.15 47.90 223.23 48.27 226.84 49.02
  C 232.82 50.26 237.63 51.58 241.28 52.97
  C 258.99 59.74 273.93 70.04 286.12 83.88
  C 286.31 84.09 288.69 86.93 293.28 92.39
  C 299.01 99.22 303.05 106.22 307.78 113.69
  C 309.90 117.03 312.22 121.32 314.73 126.55
  C 321.49 140.61 326.65 151.41 330.20 158.95
  C 339.60 178.92 345.62 191.33 348.25 196.18
  C 354.74 208.15 362.10 219.83 370.32 231.22
  C 376.13 239.26 380.85 245.14 386.84 250.00
  C 388.82 251.61 390.31 252.85 391.30 253.73
  C 391.38 253.80 391.34 253.92 391.24 253.95
  Z"
/>
<path d="
  M 615.36 55.91
  L 609.54 58.53
  C 609.51 58.54 609.49 58.56 609.47 58.57
  C 602.33 63.77 595.80 68.91 591.58 75.98
  C 590.85 77.21 589.46 79.23 587.43 82.05
  C 586.40 83.48 585.09 85.56 583.51 88.29
  C 580.82 92.93 577.47 98.44 575.18 103.70
  C 574.12 106.14 572.49 108.43 571.38 110.84
  C 560.84 133.75 550.21 155.46 539.48 175.97
  C 538.01 178.78 532.97 186.32 524.34 198.60
  C 521.97 201.97 517.81 207.08 511.88 213.92
  C 507.17 219.35 502.44 223.91 497.69 227.62
  C 489.14 234.29 480.07 239.89 470.48 244.42
  C 459.42 249.64 447.80 252.04 433.29 254.28
  C 430.20 254.75 427.70 255.01 425.79 255.06
  C 422.38 255.14 419.62 255.48 415.75 255.21
  C 412.24 254.97 408.26 254.88 403.79 254.95
  C 403.37 254.96 402.94 254.90 402.54 254.79
  C 401.47 254.49 400.47 254.36 399.52 254.40
  C 399.12 254.42 398.93 253.91 399.25 253.66
  C 406.17 248.34 412.09 242.29 417.00 235.51
  C 425.43 223.89 432.49 213.13 438.19 203.22
  C 442.02 196.57 446.68 187.37 452.16 175.64
  C 452.42 175.08 459.96 159.30 474.78 128.29
  C 477.59 122.42 480.43 117.14 483.32 112.46
  C 487.41 105.81 490.71 100.80 493.22 97.45
  C 494.22 96.11 496.77 92.95 500.87 87.97
  C 503.74 84.49 506.45 81.47 509.02 78.90
  C 519.55 68.37 531.77 60.21 545.66 54.44
  C 553.75 51.07 561.87 48.96 570.01 48.10
  C 571.20 47.98 575.25 47.92 582.16 47.93
  C 592.20 47.95 603.04 50.28 611.76 53.36
  C 612.74 53.71 613.96 54.31 615.41 55.17
  C 615.70 55.34 615.67 55.77 615.36 55.91
  Z"
/>
</g>
<g fill="#8b8989">
<path d="
  M 500.49 326.98
  C 499.11 327.77 497.89 328.09 496.83 327.94
  C 496.49 327.89 496.23 327.63 496.16 327.29
  C 495.23 322.40 493.77 317.62 491.78 312.95
  C 489.95 308.66 487.17 305.13 483.46 302.36
  C 477.88 298.19 471.59 295.55 464.59 294.44
  C 448.43 291.89 428.83 295.38 416.46 306.80
  C 415.92 307.30 414.50 308.59 412.20 310.68
  C 404.41 317.75 399.87 331.75 398.29 341.70
  C 397.67 345.64 398.21 349.56 397.19 353.25
  C 397.12 353.50 397.08 353.76 397.08 354.02
  L 397.08 360.38
  C 397.08 360.66 397.11 360.94 397.18 361.22
  C 398.08 365.12 397.71 369.00 398.26 372.82
  C 400.01 384.92 404.24 395.91 410.95 405.80
  C 417.46 415.40 425.92 421.71 436.31 424.72
  C 447.95 428.09 459.43 428.67 471.61 425.34
  C 484.78 421.73 492.94 411.58 497.62 399.40
  C 498.89 396.07 499.82 393.40 500.39 391.37
  C 500.70 390.28 501.76 389.57 502.89 389.70
  L 505.40 390.00
  C 505.57 390.02 505.74 390.08 505.88 390.18
  C 506.77 390.75 506.96 391.34 506.46 391.97
  C 506.18 392.32 506.04 392.81 506.04 393.44
  C 506.02 397.69 505.62 401.27 504.85 404.19
  C 502.92 411.46 500.66 418.45 498.06 425.17
  C 497.75 425.97 497.16 426.63 496.40 427.02
  C 493.54 428.49 490.61 429.53 487.61 430.14
  C 473.85 432.94 460.58 434.28 447.79 434.17
  C 430.16 434.01 414.39 428.78 400.48 418.48
  C 396.22 415.32 392.18 410.42 389.47 407.04
  C 382.13 397.86 377.71 385.73 376.28 374.48
  C 376.03 372.53 375.72 369.29 375.34 364.75
  C 375.02 360.89 375.76 357.64 375.94 354.09
  C 376.51 343.12 379.56 332.54 385.11 322.35
  C 388.51 316.10 391.83 311.74 397.14 307.29
  C 399.69 305.15 403.35 302.51 408.10 299.37
  C 421.41 290.58 437.18 287.97 452.62 287.17
  C 458.46 286.87 463.25 287.62 469.13 288.00
  C 476.83 288.51 484.15 289.98 491.10 292.42
  C 493.14 293.14 495.28 294.30 497.52 295.90
  C 497.77 296.07 497.94 296.33 498.02 296.62
  L 499.74 302.87
  C 499.86 303.30 499.90 303.75 499.87 304.20
  C 499.77 305.79 500.10 309.30 500.85 314.74
  C 501.00 315.84 501.04 319.66 500.95 326.19
  C 500.94 326.52 500.77 326.82 500.49 326.98
  Z"
/>
<path d="
  M 0.00 430.80
  L 0.00 427.77
  C 1.91 426.70 4.67 425.71 8.30 424.80
  C 11.98 423.88 15.11 419.02 16.74 415.74
  C 22.49 404.15 25.56 398.02 25.96 397.36
  C 26.15 397.04 26.12 396.64 25.89 396.35
  L 25.53 395.91
  C 25.24 395.55 25.17 395.05 25.34 394.62
  C 28.39 386.97 32.84 376.23 38.67 362.40
  C 38.92 361.83 39.07 360.94 39.12 359.73
  C 39.13 359.41 39.21 359.09 39.34 358.79
  C 40.56 356.08 41.65 353.64 42.60 351.47
  C 45.40 345.10 49.25 335.73 54.15 323.38
  C 58.44 312.55 61.76 304.53 64.13 299.33
  C 65.52 296.27 66.52 293.88 67.13 292.15
  C 68.15 289.23 70.08 287.85 72.92 288.00
  C 73.41 288.02 73.84 288.33 74.03 288.79
  C 78.96 300.88 83.48 312.17 87.59 322.64
  C 87.63 322.74 87.92 323.49 88.46 324.90
  C 88.69 325.51 92.62 335.67 100.24 355.40
  C 101.09 357.60 101.93 359.75 102.74 361.85
  C 107.55 374.14 110.66 382.01 112.08 385.46
  C 115.99 394.97 119.78 407.62 124.44 417.81
  C 125.63 420.42 127.53 422.63 130.13 424.43
  C 130.49 424.67 130.89 424.83 131.31 424.89
  C 133.36 425.19 135.88 425.75 138.88 426.56
  C 140.65 427.04 141.44 428.02 141.24 429.50
  C 141.13 430.32 140.37 430.93 139.47 430.94
  C 123.19 431.01 106.61 431.01 89.72 430.94
  C 88.60 430.93 87.75 429.95 87.89 428.85
  L 87.89 428.82
  C 88.09 427.63 89.00 426.68 90.19 426.45
  L 102.31 424.10
  C 102.70 424.02 103.06 423.83 103.34 423.55
  C 103.77 423.14 104.24 422.44 104.76 421.45
  C 104.95 421.09 104.98 420.67 104.84 420.29
  L 88.81 376.41
  C 88.52 375.60 87.75 375.06 86.88 375.05
  C 82.74 375.00 78.77 373.96 74.29 373.97
  C 68.19 373.97 62.66 373.97 57.71 373.97
  C 52.63 373.97 48.30 375.22 43.06 375.01
  C 42.67 375.00 42.31 375.22 42.15 375.58
  C 39.77 380.87 37.70 386.08 35.93 391.23
  C 33.86 397.27 32.38 401.47 31.50 403.84
  C 29.29 409.81 27.86 414.02 27.19 416.47
  C 26.95 417.34 26.90 419.24 27.03 422.17
  C 27.04 422.54 27.22 422.88 27.52 423.09
  C 28.97 424.14 29.99 424.69 30.58 424.76
  C 34.52 425.21 36.70 425.87 40.42 426.05
  C 41.62 426.11 42.94 426.50 44.37 427.22
  C 44.63 427.35 44.79 427.61 44.79 427.89
  L 44.79 430.23
  C 44.79 430.63 44.46 430.96 44.06 430.96
  L 0.00 430.80
  Z
  M 65.91 316.89
  C 65.49 316.25 64.52 316.36 64.27 317.08
  C 60.09 328.85 55.05 341.82 49.14 355.99
  C 48.49 357.55 48.07 358.70 47.86 359.45
  C 47.19 361.92 46.84 363.17 46.83 363.20
  C 46.75 363.38 46.65 363.55 46.54 363.72
  C 45.91 364.64 45.59 365.84 45.59 367.33
  C 45.60 367.66 45.86 367.93 46.19 367.95
  C 48.01 368.05 49.04 368.04 49.27 367.92
  C 50.43 367.33 52.17 367.03 54.50 367.02
  C 63.99 366.97 72.14 366.98 78.93 367.05
  C 79.50 367.06 80.05 367.19 80.56 367.44
  C 81.53 367.91 82.64 368.10 83.88 367.99
  C 84.44 367.94 84.79 367.37 84.59 366.85
  C 82.94 362.73 82.24 359.40 80.65 355.43
  C 79.06 351.45 74.56 339.86 67.17 320.66
  C 67.10 320.50 67.06 320.33 67.04 320.16
  C 66.86 318.86 66.48 317.77 65.91 316.89
  Z"
/>
<path d="
  M 149.45 428.23
  C 148.88 428.06 147.92 427.67 146.55 427.08
  C 140.18 424.32 135.86 420.53 133.57 415.72
  C 132.92 414.36 132.80 412.17 133.20 409.14
  C 133.25 408.78 133.38 408.44 133.60 408.14
  C 137.94 402.27 144.33 398.19 150.85 394.76
  C 151.40 394.47 151.35 393.66 150.76 393.44
  C 143.58 390.75 135.81 385.94 132.53 379.54
  C 131.06 376.67 130.14 372.52 129.75 367.08
  C 129.59 364.84 129.96 361.53 130.86 357.14
  C 131.58 353.63 132.82 350.56 134.57 347.94
  C 142.52 336.07 157.03 331.88 171.03 331.87
  C 179.89 331.86 186.90 332.29 192.07 333.16
  C 196.36 333.89 205.45 335.48 219.34 337.95
  C 220.36 338.13 221.76 338.26 223.53 338.33
  C 224.59 338.38 225.64 338.23 226.65 337.91
  C 235.89 334.88 244.89 332.57 253.64 330.98
  C 254.19 330.87 254.72 331.23 254.84 331.78
  C 255.69 335.98 255.98 340.07 255.70 344.05
  C 255.63 345.14 256.99 345.68 257.69 344.84
  C 262.67 338.82 269.25 333.69 276.97 331.97
  C 282.90 330.65 290.19 333.52 294.81 337.08
  C 295.12 337.32 295.20 337.76 294.99 338.09
  C 292.69 341.71 289.98 345.02 286.85 348.03
  C 285.99 348.86 284.74 349.16 283.59 348.81
  C 278.94 347.40 274.48 346.23 270.21 345.29
  C 263.64 343.85 260.00 347.21 257.36 352.67
  C 257.17 353.06 257.07 353.49 257.07 353.93
  L 257.07 414.52
  C 257.07 414.80 257.11 415.08 257.19 415.35
  C 258.12 418.56 257.62 422.44 261.82 424.68
  C 261.85 424.70 261.89 424.71 261.93 424.71
  L 273.11 426.04
  C 273.41 426.08 273.70 426.19 273.94 426.36
  C 275.15 427.19 275.44 428.57 274.82 430.50
  C 274.72 430.80 274.44 431.00 274.13 431.00
  L 226.66 431.00
  C 225.66 431.00 224.85 430.19 224.85 429.19
  L 224.85 428.90
  C 224.85 427.73 225.68 426.73 226.83 426.50
  L 236.20 424.68
  C 236.51 424.62 236.76 424.40 236.87 424.11
  L 237.81 421.54
  C 237.99 421.05 238.06 420.53 238.03 420.02
  C 237.90 417.95 238.11 415.81 238.67 413.58
  C 238.83 412.92 238.91 412.25 238.92 411.57
  C 238.99 397.02 239.00 379.28 238.96 358.37
  C 238.95 353.19 238.42 349.38 237.80 344.98
  C 237.25 341.04 234.46 340.81 230.94 341.94
  C 229.64 342.36 227.33 342.71 224.00 343.00
  C 216.44 343.66 211.51 344.03 209.20 344.12
  C 209.04 344.13 208.88 344.19 208.76 344.29
  C 208.07 344.88 207.07 345.07 205.74 344.86
  C 205.35 344.80 205.05 345.21 205.24 345.56
  L 209.52 353.69
  C 209.82 354.27 209.99 354.91 210.00 355.56
  C 210.10 359.95 210.11 364.27 210.02 368.51
  C 209.98 370.70 209.29 373.17 207.94 375.94
  C 202.98 386.15 194.87 392.53 183.60 395.10
  C 176.68 396.68 168.58 397.73 161.51 396.20
  C 161.18 396.13 160.84 396.16 160.52 396.28
  C 157.59 397.39 152.02 399.44 150.55 402.27
  C 149.62 404.05 149.10 405.37 148.99 406.24
  C 148.54 409.77 150.88 411.43 153.94 413.44
  C 154.28 413.66 154.65 413.82 155.04 413.93
  C 160.12 415.26 165.11 415.94 170.00 415.96
  C 182.33 415.99 192.34 415.76 203.37 418.91
  C 209.50 420.66 214.60 424.06 218.67 429.13
  C 221.42 432.54 221.73 435.82 222.73 440.83
  C 222.81 441.22 222.85 441.60 222.85 441.99
  C 222.87 453.76 218.35 463.10 209.29 470.02
  C 197.08 479.35 182.44 482.26 167.59 482.08
  C 154.72 481.93 142.98 478.29 132.37 471.15
  C 132.18 471.02 132.01 470.88 131.86 470.71
  L 130.05 468.83
  C 129.82 468.59 129.95 468.18 130.28 468.12
  L 131.09 467.96
  C 131.48 467.88 131.62 467.39 131.33 467.12
  C 128.32 464.35 126.55 460.69 126.04 456.14
  C 125.57 452.02 126.41 448.06 128.56 444.27
  C 133.39 435.71 140.88 432.55 149.49 429.05
  C 149.87 428.90 149.84 428.35 149.45 428.23
  Z
  M 148.94 364.36
  C 149.15 375.64 154.27 387.44 166.43 389.93
  C 167.45 390.14 169.11 390.22 171.39 390.18
  C 173.67 390.14 175.32 389.99 176.34 389.75
  C 188.40 386.81 193.08 374.83 192.88 363.55
  C 192.67 352.28 187.55 340.47 175.39 337.99
  C 174.36 337.78 172.71 337.69 170.43 337.73
  C 168.15 337.78 166.49 337.92 165.48 338.17
  C 153.42 341.10 148.74 353.08 148.94 364.36
  Z
  M 147.43 437.39
  C 145.67 440.07 144.59 442.79 144.18 445.55
  C 143.71 448.74 144.28 452.71 145.89 457.44
  C 147.50 462.17 150.49 466.00 154.86 468.91
  C 160.57 472.73 165.61 474.75 169.97 474.96
  C 176.13 475.27 183.49 475.71 189.43 472.89
  C 198.69 468.49 204.99 463.33 206.87 452.98
  C 207.64 448.73 207.07 444.91 205.16 441.53
  C 203.07 437.82 200.06 435.25 196.15 433.81
  C 186.15 430.15 176.39 429.67 165.27 430.02
  C 158.55 430.23 153.00 432.23 148.62 436.03
  C 148.16 436.43 147.76 436.89 147.43 437.39
  Z"
/>
<path d="
  M 784.00 426.48
  L 784.00 430.92
  L 738.67 430.94
  C 737.68 430.94 736.87 430.13 736.87 429.14
  L 736.87 428.50
  C 736.87 427.22 737.87 426.17 739.14 426.10
  L 742.82 425.91
  C 743.13 425.89 743.43 425.80 743.69 425.65
  C 744.72 425.08 745.96 424.86 747.42 425.01
  C 747.82 425.05 748.22 424.86 748.43 424.51
  C 749.46 422.78 749.97 421.75 749.97 421.40
  C 749.94 418.14 750.23 415.47 750.84 413.39
  C 750.90 413.19 750.93 412.99 750.93 412.78
  L 750.99 367.67
  C 750.99 367.46 750.95 367.25 750.88 367.06
  C 750.58 366.21 750.26 364.36 749.93 361.52
  C 749.75 359.95 749.18 357.45 748.21 354.04
  C 746.67 348.62 742.82 345.69 738.00 343.19
  C 730.53 339.34 720.65 340.47 713.56 344.26
  C 710.64 345.83 707.41 348.93 704.74 350.81
  C 704.09 351.27 703.90 352.16 704.32 352.84
  C 704.62 353.33 704.77 353.80 704.76 354.24
  C 704.74 356.73 704.91 359.18 705.28 361.60
  C 705.65 364.08 705.84 366.53 705.84 368.94
  C 705.83 383.14 705.82 396.49 705.80 409.00
  C 705.80 409.69 705.89 412.77 706.08 418.26
  C 706.15 420.21 706.43 421.71 706.93 422.74
  C 708.52 426.02 711.82 424.49 714.31 425.53
  C 715.38 425.98 716.90 426.14 718.86 426.01
  C 719.49 425.97 720.03 426.47 720.03 427.11
  L 720.03 430.11
  C 720.03 430.60 719.64 430.99 719.16 430.99
  L 673.79 430.99
  C 673.45 430.99 673.16 430.76 673.08 430.44
  C 671.63 424.79 676.73 426.78 679.74 425.59
  C 680.97 425.10 682.34 424.90 683.87 424.99
  C 684.22 425.01 684.55 424.85 684.75 424.56
  C 685.56 423.41 686.01 422.39 686.08 421.51
  C 686.13 420.88 686.35 420.22 686.72 419.54
  C 686.90 419.21 687.00 418.84 687.01 418.46
  C 687.14 401.53 687.12 383.98 686.96 365.82
  C 686.91 359.85 685.76 354.69 683.51 350.32
  C 682.32 348.01 680.33 345.97 677.56 344.21
  C 665.88 336.79 650.73 342.82 642.40 352.42
  C 642.19 352.67 642.07 352.98 642.07 353.31
  C 642.00 388.27 642.01 408.54 642.10 414.12
  C 642.10 414.49 642.32 415.16 642.77 416.14
  C 642.89 416.40 642.95 416.69 642.95 416.97
  L 642.95 421.87
  C 642.95 422.16 643.04 422.44 643.21 422.67
  C 644.32 424.23 645.58 425.01 647.00 425.01
  C 650.04 424.99 651.59 426.14 654.90 426.04
  C 655.52 426.02 656.03 426.52 656.03 427.14
  L 656.03 430.08
  C 656.03 430.59 655.62 431.00 655.11 431.00
  L 610.93 430.99
  C 609.82 430.99 608.98 429.97 609.20 428.88
  L 609.23 428.74
  C 609.44 427.46 610.46 426.46 611.75 426.26
  L 620.37 424.97
  C 620.63 424.93 620.88 424.80 621.05 424.60
  C 622.28 423.19 622.93 421.90 623.00 420.72
  C 623.20 417.28 623.51 414.89 623.93 413.55
  C 623.96 413.48 623.97 413.41 623.97 413.34
  L 624.05 353.78
  C 624.05 353.64 624.03 353.50 624.00 353.37
  C 623.50 351.48 623.20 349.59 623.11 347.68
  C 622.91 343.73 621.89 340.39 617.22 341.46
  C 615.92 341.75 614.37 342.22 612.57 342.85
  C 611.57 343.19 610.50 342.58 610.30 341.54
  L 610.08 340.41
  C 609.89 339.46 610.43 338.52 611.35 338.21
  C 621.54 334.74 631.40 332.35 640.93 331.02
  C 641.52 330.94 642.05 331.40 642.05 332.00
  L 642.05 344.03
  C 642.05 345.11 643.40 345.60 644.10 344.77
  C 654.06 332.90 669.94 328.98 684.62 332.27
  C 692.39 334.01 697.57 337.76 701.43 344.35
  C 701.88 345.13 702.92 345.30 703.60 344.72
  C 707.80 341.12 711.20 337.79 715.32 336.12
  C 722.00 333.40 728.85 331.85 735.86 331.46
  C 748.61 330.76 762.00 336.52 766.39 349.33
  C 767.20 351.70 767.88 354.63 768.42 358.11
  C 768.81 360.64 769.00 363.64 768.99 367.11
  C 768.98 373.67 768.99 386.52 769.01 405.65
  C 769.01 408.89 769.98 412.07 769.62 415.16
  C 769.57 415.60 769.59 416.04 769.66 416.47
  C 770.09 419.07 769.81 421.89 772.24 424.55
  C 772.45 424.77 772.72 424.91 773.01 424.95
  L 784.00 426.48
  Z"
/>
<path d="
  M 611.23 394.36
  C 609.43 400.34 608.48 403.42 608.39 403.60
  C 607.23 405.86 605.73 408.62 603.90 411.89
  C 602.39 414.59 600.23 417.19 597.44 419.70
  C 594.23 422.59 590.46 425.29 586.13 427.81
  C 582.18 430.12 577.86 431.76 573.18 432.75
  C 558.11 435.94 544.07 434.00 531.06 426.94
  C 527.11 424.80 524.16 422.66 522.23 420.53
  C 519.38 417.39 517.62 415.44 516.95 414.68
  C 516.71 414.41 516.50 414.13 516.32 413.82
  C 513.48 409.02 511.20 403.43 509.49 397.05
  C 509.47 397.00 509.46 396.94 509.46 396.88
  L 508.39 383.57
  C 508.37 383.33 508.39 383.08 508.46 382.84
  C 509.27 379.88 508.72 376.85 509.44 373.79
  C 510.39 369.72 511.05 367.09 511.44 365.92
  C 517.67 347.13 534.96 333.42 555.19 332.04
  C 563.16 331.49 569.61 331.71 574.55 332.68
  C 589.78 335.68 600.84 344.21 607.75 358.28
  C 608.04 358.87 609.29 362.07 611.51 367.89
  C 611.64 368.25 611.72 368.62 611.74 369.00
  C 611.92 373.09 612.65 376.50 612.62 380.74
  C 612.60 383.35 612.26 387.48 611.59 393.13
  C 611.58 393.16 611.46 393.57 611.23 394.36
  Z
  M 590.66 368.17
  C 589.72 365.11 589.01 363.30 588.38 360.40
  C 588.06 358.94 587.62 357.61 587.07 356.41
  C 582.03 345.55 574.23 338.57 561.83 337.70
  C 550.14 336.87 541.35 341.48 535.46 351.53
  C 534.40 353.34 533.41 355.59 532.50 358.26
  C 531.23 361.99 530.49 364.32 530.28 365.26
  C 529.24 369.95 528.79 375.67 528.93 382.40
  C 529.03 387.07 529.90 391.16 529.99 395.95
  C 530.00 396.63 530.10 397.30 530.27 397.95
  C 531.77 403.62 533.96 408.75 536.85 413.34
  C 538.57 416.07 540.41 417.50 542.89 420.13
  C 543.78 421.08 545.07 422.09 546.76 423.14
  C 563.71 433.78 584.58 425.27 589.96 405.75
  C 591.24 401.09 591.92 397.92 592.01 396.25
  C 592.34 389.78 592.31 382.80 591.92 375.30
  C 591.90 374.88 591.83 374.47 591.70 374.08
  C 591.33 372.94 591.08 371.43 590.93 369.56
  C 590.89 369.09 590.80 368.62 590.66 368.17
  Z"
/>
<path d="
  M 345.80 372.20
  C 345.97 369.69 346.03 368.20 345.96 367.74
  C 345.11 361.76 345.49 353.34 340.20 347.12
  C 337.11 343.48 333.04 341.49 328.00 341.16
  C 326.63 341.07 325.04 341.15 323.23 341.42
  C 317.39 342.30 312.43 343.21 308.05 347.77
  C 304.14 351.84 301.21 356.28 299.26 361.11
  C 299.20 361.27 299.08 361.41 298.92 361.50
  L 298.27 361.88
  C 297.28 362.45 296.00 362.11 295.43 361.12
  L 292.14 355.42
  C 291.72 354.68 291.78 353.76 292.30 353.08
  C 303.63 338.47 318.82 331.40 337.88 331.86
  C 351.57 332.19 359.46 338.92 361.53 352.03
  C 361.66 352.86 361.90 355.10 362.24 358.76
  C 362.26 358.93 362.26 359.09 362.23 359.25
  C 362.02 360.56 362.11 362.55 362.51 365.23
  C 362.77 366.94 362.89 369.86 362.88 374.00
  C 362.84 391.77 362.90 404.51 363.06 412.23
  C 363.11 414.20 364.03 417.27 365.84 421.42
  C 367.39 424.96 370.15 427.10 374.14 427.85
  C 375.42 428.10 376.45 427.94 377.23 427.38
  C 377.97 426.85 379.00 427.08 379.45 427.86
  L 379.72 428.33
  C 379.98 428.78 379.84 429.36 379.41 429.65
  C 375.28 432.44 369.97 433.91 363.48 434.04
  C 357.94 434.15 353.61 432.45 350.48 428.92
  C 350.45 428.89 350.43 428.86 350.41 428.82
  L 348.27 425.55
  C 347.64 424.58 346.35 424.29 345.37 424.91
  C 341.50 427.35 334.84 431.66 329.44 432.62
  C 314.42 435.29 299.74 435.72 291.41 420.65
  C 291.24 420.35 291.12 420.03 291.04 419.70
  C 288.61 410.13 290.65 401.97 297.17 395.22
  C 302.72 389.47 309.38 385.05 317.15 381.94
  C 324.98 378.81 333.10 376.28 341.53 374.33
  C 343.04 373.98 344.31 373.52 345.33 372.95
  C 345.60 372.79 345.78 372.51 345.80 372.20
  Z
  M 345.43 382.06
  C 333.30 381.35 317.75 384.90 311.18 396.13
  C 309.13 399.65 308.27 403.43 308.60 407.46
  C 308.93 411.35 310.25 415.00 312.57 418.41
  C 316.55 424.27 324.31 425.38 331.01 425.03
  C 336.51 424.74 341.12 422.54 344.84 418.42
  C 345.50 417.68 345.87 416.72 345.87 415.73
  L 345.87 382.53
  C 345.87 382.28 345.68 382.08 345.43 382.06
  Z"
/>
</g>
<g fill="#80b122">
<path d="
  M 276.99 0.00
  C 280.12 0.48 283.23 1.06 286.31 1.75
  C 287.26 1.96 288.07 2.17 288.75 2.36
  C 293.45 3.70 297.57 5.28 301.10 7.11
  C 304.55 8.90 308.23 11.38 312.13 14.53
  C 317.14 18.58 321.09 22.03 323.96 24.89
  C 326.77 27.68 330.68 33.07 335.70 41.08
  C 339.79 47.61 343.80 55.15 347.72 63.70
  C 352.24 73.55 354.70 78.84 355.10 79.57
  C 356.05 81.33 357.71 84.87 360.07 90.18
  C 361.63 93.69 363.43 97.15 365.48 100.55
  C 371.72 110.92 375.75 117.39 377.56 119.96
  C 378.43 121.19 380.65 124.13 384.22 128.78
  C 387.11 132.54 390.48 135.88 394.33 138.81
  C 394.48 138.92 394.41 139.16 394.23 139.18
  C 387.72 139.91 382.73 140.15 379.26 139.90
  C 373.68 139.49 367.38 138.59 360.36 137.20
  C 355.95 136.33 351.97 135.07 348.42 133.42
  C 343.41 131.10 339.67 129.24 337.20 127.85
  C 332.57 125.23 328.15 121.84 323.92 117.67
  C 317.87 111.70 311.34 103.64 304.31 93.49
  C 303.69 92.60 301.57 89.00 297.94 82.67
  C 295.75 78.84 293.79 75.12 292.08 71.53
  C 286.07 58.92 280.73 47.98 276.07 38.69
  C 275.01 36.58 274.12 34.19 272.93 32.07
  C 270.94 28.56 268.48 24.61 265.55 20.20
  C 261.29 13.81 255.94 8.99 249.49 5.75
  C 248.97 5.49 249.05 4.72 249.61 4.57
  L 266.97 0.00
  L 276.99 0.00
  Z"
/>
<path d="
  M 524.67 0.00
  C 527.80 0.62 530.80 1.62 533.96 2.16
  C 536.02 2.51 537.35 3.77 539.39 4.11
  C 540.03 4.21 540.63 4.47 541.19 4.89
  C 541.44 5.08 541.42 5.47 541.14 5.63
  C 537.73 7.58 535.93 8.63 535.74 8.76
  C 535.48 8.97 535.23 9.18 534.98 9.40
  L 528.35 15.42
  C 528.13 15.62 527.93 15.84 527.75 16.09
  C 524.70 20.26 522.15 24.20 520.10 27.90
  C 515.87 35.56 513.69 39.52 513.56 39.79
  C 510.03 47.04 506.27 54.10 503.04 61.40
  C 501.23 65.50 499.17 68.65 497.58 72.68
  C 497.14 73.81 496.39 75.36 495.32 77.35
  C 493.17 81.37 490.45 86.14 487.15 91.66
  C 486.41 92.91 483.03 97.75 477.01 106.18
  C 473.05 111.71 469.25 114.84 463.66 120.41
  C 462.19 121.86 459.88 123.62 456.71 125.69
  C 451.56 129.04 445.84 131.94 439.55 134.40
  C 437.32 135.27 435.44 135.89 433.89 136.26
  C 430.22 137.13 428.28 137.60 428.06 137.69
  C 427.72 137.82 427.37 137.90 427.01 137.92
  C 424.84 138.03 423.14 138.32 421.89 138.78
  C 421.57 138.90 421.23 138.95 420.89 138.93
  C 417.61 138.73 413.55 139.97 409.86 139.97
  C 404.83 139.98 400.25 139.75 396.10 139.26
  C 395.89 139.23 395.82 138.97 395.99 138.84
  C 398.79 136.80 400.52 135.41 401.17 134.66
  C 409.12 125.60 415.90 116.67 421.34 106.40
  C 424.01 101.38 427.10 97.13 429.67 91.50
  C 436.05 77.46 440.59 67.63 443.30 62.00
  C 445.57 57.29 447.63 53.21 449.49 49.75
  C 452.42 44.30 456.69 37.67 462.28 29.84
  C 464.49 26.73 467.26 23.79 470.59 21.00
  C 478.23 14.59 482.53 11.08 483.48 10.49
  C 488.92 7.12 493.83 4.78 498.21 3.47
  C 501.84 2.38 507.01 1.22 513.71 0.00
  L 524.67 0.00
  Z"
/>
</g>
<circle fill="#e10a17" cx="395.13" cy="180.68" r="29.41"/>
</svg>
